<svg height="512" viewBox="0 0 512 512" width="512" xmlns="http://www.w3.org/2000/svg"><g id="filled_outline" data-name="filled outline"><path d="m424 192a159.99956 159.99956 0 0 1 64 128v32a24 24 0 0 1 -48 0v68a20 20 0 0 1 -40 0v8a20 20 0 0 1 -40 0v-16a20 20 0 0 1 -40 0v-8a20 20 0 0 1 -40 0v-212z" fill="#ffceb6"/><path d="m88 192a159.99956 159.99956 0 0 0 -64 128v32a24 24 0 0 0 48 0v68a20 20 0 0 0 40 0v8a20 20 0 0 0 40 0v-16a20 20 0 0 0 40 0v-8a20 20 0 0 0 40 0v-212z" fill="#ffceb6"/><path d="m272 24h152v128h-152z" fill="#548aff" transform="matrix(-1 0 0 -1 696 176)"/><path d="m272 152h152v40h-152z" fill="#e0edff" transform="matrix(-1 0 0 -1 696 344)"/><path d="m256 488.03174 120.06539-138.03583a61.56287 61.56287 0 0 0 -5.03831-85.95564l-.00009-.00008a61.56287 61.56287 0 0 0 -84.94318 2.02131l-30.49208 30.49208-30.54523-30.54523a61.484 61.484 0 0 0 -84.83443-2.01872l-.00008.00008a61.484 61.484 0 0 0 -4.92971 85.96272z" fill="#ef5e3b"/><path d="m88 24h152v128h-152z" fill="#548aff"/><path d="m88 152h152v40h-152z" fill="#e0edff"/><path d="m64 379.69482v40.30518a27.9772 27.9772 0 0 0 44.23926 22.78833 27.9901 27.9901 0 0 0 51.76074-14.78833v-20h-16v20a12 12 0 0 1 -24 0v-68h-16v60a12 12 0 0 1 -24 0v-96.70215a84.67008 84.67008 0 0 0 24-59.29785h-16a68.7958 68.7958 0 0 1 -20.28418 48.96973l-1.373 1.373a8.00235 8.00235 0 0 0 -2.34282 5.65727v32a16 16 0 0 1 -32 0v-32a152.75842 152.75842 0 0 1 58.70508-120h133.29492v32h16v-208a8.00039 8.00039 0 0 0 -8-8h-144a8.00039 8.00039 0 0 0 -8 8v164.0752a168.83816 168.83816 0 0 0 -64 131.9248v32a31.97546 31.97546 0 0 0 48 27.69482zm32-195.69482v-24h128v24zm128-152v112h-128v-112z"/><path d="m432 188.0752v-164.0752a8.00039 8.00039 0 0 0 -8-8h-144a8.00039 8.00039 0 0 0 -8 8v208h16v-32h133.29492a152.75842 152.75842 0 0 1 58.70508 120v32a16 16 0 0 1 -32 0v-32a8.00235 8.00235 0 0 0 -2.34277-5.65723l-1.37305-1.373a68.7958 68.7958 0 0 1 -20.28418-48.96977h-16a84.67008 84.67008 0 0 0 24 59.29785v96.70215a12 12 0 0 1 -24 0v-60h-16v68a12 12 0 0 1 -24 0v-20h-16v20a27.9901 27.9901 0 0 0 51.76074 14.78833 27.9772 27.9772 0 0 0 44.23926-22.78833v-40.30518a31.97546 31.97546 0 0 0 48-27.69482v-32a168.83816 168.83816 0 0 0 -64-131.9248zm-16-156.0752v112h-128v-112zm-128 152v-24h128v24z"/><path d="m134.83008 258.06934a69.48422 69.48422 0 0 0 -5.57031 97.14843l120.71777 138.08008a8 8 0 0 0 6.02246 2.73438h.00977a8.00042 8.00042 0 0 0 6.02636-2.75l120.06543-138.03614a69.56311 69.56311 0 0 0 -101.6748-94.84179l-24.835 24.83593-24.8877-24.88867a69.40559 69.40559 0 0 0 -95.87398-2.28222zm126.41892 44.1416 30.49219-30.49219a53.56274 53.56274 0 0 1 78.28809 73.02734l-114.0449 131.11426-114.67969-131.17383a53.48265 53.48265 0 0 1 78.085-73.0205l30.54492 30.54492a8.003 8.003 0 0 0 11.31439 0z"/></g></svg>