<svg height="512" viewBox="0 0 256 256" width="512" xmlns="http://www.w3.org/2000/svg"><g id="Layer_53"><g><g><path d="m216.76 165.07c-2.876-3.368-7.746-4.203-11.58-1.986l-34.389 19.881-.023.007c2.159-1.662 3.517-3.735 3.365-6.329-.652-11.19-15.283-8.296-26.981-7.614-7.228.421-18.857-2.798-26.689-5.32-5.68-1.829-11.712-2.281-17.6-1.314-21.676 3.56-16.003 2.657-19.05 3.033-14.012 1.729-26.092 10.7-32.374 23.344l-22.835 38.702c-1.682 2.85-.748 6.629 2.28 8.286l31.286 17.119c2.417 1.322 5.455.477 6.837-1.914l18.571-32.118c5.993-10.365 17.302-16.084 29.819-13.604.051.01.101.02.152.03l24.407 4.899c13.854 2.781 28.246-.009 40.058-7.767l33.137-23.922c4.353-3.144 5.095-9.332 1.609-13.413z" fill="#f9d0b4"/></g><g><path d="m92.111 26.89c-3.995-.744-7.144-3.829-7.904-7.743-.038-.197-.313-.197-.351 0-.76 3.914-3.908 6.999-7.904 7.743-.201.037-.201.306 0 .344 3.995.744 7.144 3.829 7.904 7.743.038.197.313.197.351 0 .759-3.914 3.908-6.999 7.904-7.743.2-.038.2-.306 0-.344z" fill="#f5c84c"/></g><g><path d="m132.605 134.444c-2.756-.513-4.929-2.642-5.453-5.342-.026-.136-.216-.136-.242 0-.524 2.7-2.696 4.829-5.453 5.342-.138.026-.138.211 0 .237 2.756.513 4.929 2.642 5.453 5.342.026.136.216.136.242 0 .524-2.7 2.696-4.829 5.453-5.342.139-.026.139-.212 0-.237z" fill="#70d6f9"/></g><g><circle cx="101.538" cy="3" fill="#87d147" r="3"/></g><g><path d="m130.92 226.87h-2.07v-2.07c0-1.549-1.256-2.805-2.805-2.805s-2.805 1.256-2.805 2.805v2.07h-2.069c-1.549 0-2.805 1.256-2.805 2.805s1.256 2.805 2.805 2.805h2.069v2.07c0 1.549 1.256 2.805 2.805 2.805s2.805-1.256 2.805-2.805v-2.07h2.07c1.549 0 2.805-1.256 2.805-2.805s-1.256-2.805-2.805-2.805z" fill="#fc657e"/></g><g><circle cx="103.538" cy="244" fill="#f5c84c" r="3"/></g><g><path d="m147.572 191.916c-1.314 0-2.415-1.025-2.493-2.354-.081-1.378.971-2.561 2.349-2.643 4.56-.269 17.475-1.946 22.425-6.424 1.025-.927 2.604-.846 3.531.178.926 1.023.847 2.604-.178 3.531-7.269 6.574-24.746 7.663-25.486 7.707-.05.004-.099.005-.148.005z" fill="#231f20"/></g><g><path d="m64.573 255.987c-1.226 0-2.464-.296-3.602-.918l-31.286-17.119c-2.034-1.113-3.491-2.952-4.104-5.179-.607-2.208-.29-4.604.871-6.57l22.79-38.626c6.797-13.615 19.6-22.82 34.266-24.631.635-.078.916-.104 1.127-.124.524-.05.597-.062 7.825-1.251l9.998-1.644c6.248-1.025 12.739-.542 18.771 1.401 11.374 3.662 20.526 5.521 25.777 5.204 1.529-.089 3.109-.217 4.702-.345 8.228-.664 16.738-1.349 21.51 2.803 2.078 1.809 3.226 4.334 3.41 7.507.004.065.007.133.009.2l27.291-15.777c4.876-2.822 11.072-1.758 14.732 2.526v.001c2.113 2.476 3.104 5.748 2.716 8.98-.388 3.23-2.123 6.176-4.762 8.081l-33.138 23.923c-.029.021-.06.042-.091.063-12.442 8.171-27.329 11.055-41.922 8.128l-24.539-4.926c-11.081-2.196-21.491 2.558-27.183 12.4l-18.571 32.117c-1.392 2.413-3.966 3.776-6.597 3.776zm44.347-91.587c-1.893 0-3.785.152-5.652.459l-9.997 1.644c-7.467 1.229-7.467 1.229-8.169 1.295-.185.018-.429.041-.983.109-13.024 1.607-24.403 9.822-30.441 21.975-.026.054-.055.106-.085.158l-22.835 38.702c-.477.808-.606 1.793-.356 2.703.25.909.848 1.661 1.684 2.118l31.286 17.119c1.219.668 2.776.23 3.473-.972l18.571-32.117c6.796-11.755 19.241-17.428 32.469-14.806l.188.037 24.377 4.894c13.278 2.665 26.822.045 38.147-7.375l33.093-23.891c1.531-1.105 2.498-2.747 2.723-4.622.226-1.876-.326-3.701-1.554-5.138-2.092-2.451-5.636-3.059-8.428-1.446l-34.389 19.881c-.174.101-.358.18-.551.236-1.153.331-2.396-.192-2.94-1.265-.545-1.072-.261-2.376.691-3.109 2.265-1.744 2.451-3.234 2.395-4.203-.106-1.83-.646-3.108-1.7-4.025-3.185-2.771-10.963-2.144-17.826-1.592-1.63.132-3.247.262-4.813.354-7.499.438-19.149-2.715-27.601-5.437-3.477-1.119-7.128-1.686-10.777-1.686z" fill="#231f20"/></g><g><circle cx="196.573" cy="109.602" fill="#70d6f9" r="31.651"/></g><g><circle cx="196.573" cy="100.047" fill="#f9d0b4" r="8.958"/></g><g><path d="m205.108 118.56h-17.069c-7.13 0-12.964 5.834-12.964 12.964v1.299c5.645 5.229 13.197 8.43 21.499 8.43s15.854-3.201 21.499-8.43v-1.299c-.001-7.13-5.835-12.964-12.965-12.964z" fill="#fc657e"/></g><g><path d="m196.573 143.753c-18.831 0-34.151-15.32-34.151-34.151s15.32-34.151 34.151-34.151 34.151 15.32 34.151 34.151-15.32 34.151-34.151 34.151zm0-63.303c-16.074 0-29.151 13.077-29.151 29.151s13.077 29.151 29.151 29.151 29.151-13.077 29.151-29.151-13.077-29.151-29.151-29.151z"/></g><g><path d="m196.573 111.505c-6.318 0-11.458-5.14-11.458-11.458s5.14-11.458 11.458-11.458 11.458 5.14 11.458 11.458-5.139 11.458-11.458 11.458zm0-17.916c-3.561 0-6.458 2.897-6.458 6.458s2.897 6.458 6.458 6.458 6.458-2.897 6.458-6.458-2.897-6.458-6.458-6.458z"/></g><g><path d="m218.072 134.696c-1.381 0-2.5-1.119-2.5-2.5v-.672c0-5.771-4.694-10.465-10.464-10.465h-17.069c-5.771 0-10.465 4.694-10.465 10.465v.585c0 1.381-1.119 2.5-2.5 2.5s-2.5-1.119-2.5-2.5v-.585c0-8.527 6.938-15.465 15.465-15.465h17.069c8.526 0 15.464 6.938 15.464 15.465v.672c0 1.381-1.119 2.5-2.5 2.5z"/></g><g><circle cx="135.882" cy="34.511" fill="#fc657e" r="26.505"/></g><g><circle cx="135.882" cy="26.51" fill="#f9d0b4" r="7.501"/></g><g><path d="m143.029 42.012h-14.294c-5.971 0-10.856 4.885-10.856 10.856v1.088c4.728 4.379 11.051 7.059 18.003 7.059s13.276-2.68 18.003-7.059v-1.088c.001-5.97-4.885-10.856-10.856-10.856z" fill="#f5c84c"/></g><g><path d="m135.883 63.516c-15.993 0-29.005-13.012-29.005-29.005s13.012-29.004 29.005-29.004 29.004 13.011 29.004 29.004-13.011 29.005-29.004 29.005zm0-53.009c-13.236 0-24.005 10.769-24.005 24.004 0 13.236 10.769 24.005 24.005 24.005 13.235 0 24.004-10.769 24.004-24.005s-10.769-24.004-24.004-24.004z"/></g><g><path d="m135.883 36.511c-5.515 0-10.001-4.486-10.001-10.001s4.487-10.001 10.001-10.001 10.001 4.486 10.001 10.001-4.487 10.001-10.001 10.001zm0-15.002c-2.758 0-5.001 2.243-5.001 5.001s2.243 5.001 5.001 5.001 5.001-2.243 5.001-5.001-2.243-5.001-5.001-5.001z"/></g><g><path d="m117.879 55.865c-1.381 0-2.5-1.119-2.5-2.5v-.496c0-7.365 5.992-13.356 13.356-13.356h14.293c7.365 0 13.356 5.991 13.356 13.356v.476c0 1.381-1.119 2.5-2.5 2.5s-2.5-1.119-2.5-2.5v-.476c0-4.607-3.749-8.356-8.356-8.356h-14.293c-4.608 0-8.356 3.749-8.356 8.356v.496c0 1.381-1.119 2.5-2.5 2.5z"/></g><g><circle cx="70.138" cy="115.574" fill="#87d147" r="35.915"/></g><g><circle cx="70.138" cy="103.964" fill="#f9d0b4" r="11.662"/></g><g><path d="m79.822 125.738h-19.368c-8.091 0-14.711 6.62-14.711 14.711v1.474c6.406 5.934 14.975 9.565 24.395 9.565s17.989-3.632 24.395-9.565v-1.474c0-8.091-6.62-14.711-14.711-14.711z" fill="#5290db"/></g><g><path d="m70.138 153.988c-21.182 0-38.415-17.232-38.415-38.415 0-21.182 17.233-38.414 38.415-38.414s38.415 17.232 38.415 38.414c0 21.183-17.233 38.415-38.415 38.415zm0-71.829c-18.425 0-33.415 14.989-33.415 33.414s14.99 33.415 33.415 33.415 33.415-14.99 33.415-33.415-14.99-33.414-33.415-33.414z"/></g><g><path d="m70.138 118.126c-7.809 0-14.163-6.354-14.163-14.162s6.354-14.162 14.163-14.162 14.162 6.353 14.162 14.162-6.353 14.162-14.162 14.162zm0-23.324c-5.052 0-9.163 4.11-9.163 9.162s4.11 9.162 9.163 9.162c5.052 0 9.162-4.11 9.162-9.162s-4.11-9.162-9.162-9.162z"/></g><g><path d="m94.533 143.813c-1.381 0-2.5-1.119-2.5-2.5v-.864c0-6.733-5.478-12.211-12.211-12.211h-19.368c-6.733 0-12.211 5.478-12.211 12.211v.773c0 1.381-1.119 2.5-2.5 2.5s-2.5-1.119-2.5-2.5v-.773c0-9.49 7.721-17.211 17.211-17.211h19.368c9.49 0 17.211 7.721 17.211 17.211v.864c0 1.381-1.119 2.5-2.5 2.5z"/></g></g></g></svg>